<svg width="78" height="78" viewBox="0 0 78 78" fill="none" xmlns="http://www.w3.org/2000/svg">
<circle cx="39" cy="39" r="38" stroke="#D9D9D9" stroke-width="2"/>
<path fill-rule="evenodd" clip-rule="evenodd" d="M34.6905 33.9884H40.3905V36.8277C41.2116 35.1947 43.3172 33.7275 46.4803 33.7275C52.5439 33.7275 53.9835 36.9781 53.9835 42.942V53.9874H47.8446V44.3002C47.8446 40.9039 47.0235 38.9886 44.9333 38.9886C42.0342 38.9886 40.8294 41.0528 40.8294 44.2987V53.9874H34.6905V33.9884ZM24.1639 53.7265H30.3027V33.7275H24.1639V53.7265ZM31.1821 27.2065C31.1824 27.7211 31.0803 28.2305 30.8819 28.7053C30.6835 29.1801 30.3928 29.6107 30.0265 29.9721C29.2843 30.7097 28.2797 31.1226 27.2333 31.1201C26.1888 31.1194 25.1865 30.7075 24.4432 29.9736C24.0782 29.611 23.7884 29.1799 23.5904 28.7051C23.3924 28.2302 23.29 27.721 23.2891 27.2065C23.2891 26.1675 23.7034 25.173 24.4447 24.4394C25.1873 23.7045 26.1901 23.2925 27.2348 23.293C28.2815 23.293 29.2852 23.7058 30.0265 24.4394C30.7662 25.173 31.1821 26.1675 31.1821 27.2065Z" fill="#D9D9D9"/>
</svg>
