<svg width="78" height="78" viewBox="0 0 78 78" fill="none" xmlns="http://www.w3.org/2000/svg">
<circle cx="39" cy="39" r="38" stroke="#D9D9D9" stroke-width="2"/>
<path d="M32.1905 23.293H45.0821C49.9932 23.293 53.9835 27.2832 53.9835 32.1944V45.086C53.9835 47.4468 53.0457 49.7109 51.3764 51.3803C49.707 53.0496 47.4429 53.9874 45.0821 53.9874H32.1905C27.2793 53.9874 23.2891 49.9971 23.2891 45.086V32.1944C23.2891 29.8336 24.2269 27.5695 25.8962 25.9001C27.5656 24.2308 29.8297 23.293 32.1905 23.293ZM31.8835 26.3624C30.4182 26.3624 29.0129 26.9445 27.9767 27.9806C26.9406 29.0168 26.3585 30.4221 26.3585 31.8874V45.393C26.3585 48.4471 28.8294 50.918 31.8835 50.918H45.3891C46.8544 50.918 48.2597 50.3359 49.2958 49.2997C50.332 48.2636 50.9141 46.8583 50.9141 45.393V31.8874C50.9141 28.8333 48.4432 26.3624 45.3891 26.3624H31.8835ZM46.6936 28.6645C47.2024 28.6645 47.6903 28.8666 48.0501 29.2264C48.4099 29.5862 48.612 30.0741 48.612 30.5829C48.612 31.0917 48.4099 31.5796 48.0501 31.9394C47.6903 32.2992 47.2024 32.5013 46.6936 32.5013C46.1848 32.5013 45.6968 32.2992 45.3371 31.9394C44.9773 31.5796 44.7752 31.0917 44.7752 30.5829C44.7752 30.0741 44.9773 29.5862 45.3371 29.2264C45.6968 28.8666 46.1848 28.6645 46.6936 28.6645ZM38.6363 30.9666C40.6715 30.9666 42.6233 31.775 44.0623 33.2141C45.5014 34.6532 46.3099 36.605 46.3099 38.6402C46.3099 40.6754 45.5014 42.6272 44.0623 44.0663C42.6233 45.5053 40.6715 46.3138 38.6363 46.3138C36.6011 46.3138 34.6493 45.5053 33.2102 44.0663C31.7711 42.6272 30.9627 40.6754 30.9627 38.6402C30.9627 36.605 31.7711 34.6532 33.2102 33.2141C34.6493 31.775 36.6011 30.9666 38.6363 30.9666ZM38.6363 34.036C37.4152 34.036 36.2441 34.5211 35.3806 35.3846C34.5172 36.248 34.0321 37.4191 34.0321 38.6402C34.0321 39.8613 34.5172 41.0324 35.3806 41.8958C36.2441 42.7593 37.4152 43.2444 38.6363 43.2444C39.8574 43.2444 41.0285 42.7593 41.8919 41.8958C42.7554 41.0324 43.2405 39.8613 43.2405 38.6402C43.2405 37.4191 42.7554 36.248 41.8919 35.3846C41.0285 34.5211 39.8574 34.036 38.6363 34.036Z" fill="#D9D9D9"/>
</svg>
