<svg width="78" height="78" viewBox="0 0 78 78" fill="none" xmlns="http://www.w3.org/2000/svg">
<circle cx="39" cy="39" r="38" stroke="#D9D9D9" stroke-width="2"/>
<path d="M49.4575 27.7591C48.0504 26.3378 46.3745 25.211 44.5274 24.4442C42.6803 23.6774 40.699 23.2861 38.6991 23.2931C30.3195 23.2931 23.49 30.1226 23.49 38.5022C23.49 41.1879 24.1959 43.797 25.5158 46.099L23.3672 53.9875L31.4245 51.8696C33.6498 53.082 36.1514 53.7266 38.6991 53.7266C47.0786 53.7266 53.9082 46.8971 53.9082 38.5175C53.9082 34.4505 52.3274 30.629 49.4575 27.7591ZM38.6991 51.1483C36.4277 51.1483 34.2023 50.5344 32.2532 49.3833L31.7928 49.1071L27.0045 50.3656L28.2783 45.7L27.9714 45.2242C26.7094 43.2091 26.0394 40.8798 26.0376 38.5022C26.0376 31.5345 31.7161 25.856 38.6837 25.856C42.0601 25.856 45.237 27.1759 47.6158 29.5701C48.7937 30.7425 49.7271 32.1371 50.362 33.673C50.9969 35.2089 51.3207 36.8556 51.3145 38.5175C51.3452 45.4851 45.6667 51.1483 38.6991 51.1483ZM45.636 41.6944C45.2523 41.5102 43.38 40.5894 43.0423 40.4513C42.6893 40.3285 42.4438 40.2671 42.1829 40.6354C41.922 41.0191 41.2007 41.8785 40.9858 42.1241C40.7709 42.385 40.5407 42.4157 40.157 42.2162C39.7734 42.032 38.5456 41.6176 37.103 40.3285C35.9673 39.3156 35.2152 38.0724 34.985 37.6888C34.7702 37.3051 34.9543 37.1056 35.1539 36.906C35.3227 36.7372 35.5375 36.461 35.7217 36.2461C35.9059 36.0313 35.9826 35.8624 36.1054 35.6169C36.2282 35.356 36.1668 35.1411 36.0747 34.957C35.9826 34.7728 35.2152 32.9004 34.9083 32.1331C34.6014 31.3964 34.2791 31.4885 34.0489 31.4731H33.3122C33.0513 31.4731 32.6523 31.5652 32.2993 31.9489C31.9616 32.3326 30.9794 33.2534 30.9794 35.1258C30.9794 36.9981 32.3453 38.8091 32.5295 39.0547C32.7136 39.3156 35.2152 43.1524 39.0214 44.7945C39.9268 45.1935 40.6328 45.4238 41.1853 45.5926C42.0908 45.8842 42.9195 45.8381 43.5795 45.746C44.3161 45.6386 45.8355 44.8252 46.1425 43.9351C46.4648 43.0449 46.4648 42.2929 46.3573 42.1241C46.2499 41.9553 46.0197 41.8785 45.636 41.6944Z" fill="#D9D9D9"/>
</svg>
